<?xml version="1.0" encoding="UTF-8" standalone="no"?>
<!-- Created with Inkscape (http://www.inkscape.org/) -->

<svg
   xmlns:dc="http://purl.org/dc/elements/1.1/"
   xmlns:cc="http://creativecommons.org/ns#"
   xmlns:rdf="http://www.w3.org/1999/02/22-rdf-syntax-ns#"
   xmlns:svg="http://www.w3.org/2000/svg"
   xmlns="http://www.w3.org/2000/svg"
   xmlns:sodipodi="http://sodipodi.sourceforge.net/DTD/sodipodi-0.dtd"
   xmlns:inkscape="http://www.inkscape.org/namespaces/inkscape"
   width="70.414703mm"
   height="39.424091mm"
   viewBox="0 0 249.50092 139.69166"
   id="svg5011"
   version="1.1"
   inkscape:version="0.91 r13725"
   sodipodi:docname="racetimerlogo1.svg">
  <defs
     id="defs5013" />
  <sodipodi:namedview
     id="base"
     pagecolor="#ffffff"
     bordercolor="#666666"
     borderopacity="1.0"
     inkscape:pageopacity="0.0"
     inkscape:pageshadow="2"
     inkscape:zoom="2.8"
     inkscape:cx="192.99029"
     inkscape:cy="145.47447"
     inkscape:document-units="px"
     inkscape:current-layer="layer1"
     showgrid="false"
     fit-margin-top="0.5"
     fit-margin-left="0"
     fit-margin-right="0"
     fit-margin-bottom="-1.4"
     inkscape:window-width="1920"
     inkscape:window-height="1017"
     inkscape:window-x="-8"
     inkscape:window-y="-8"
     inkscape:window-maximized="1" />
  <metadata
     id="metadata5016">
    <rdf:RDF>
      <cc:Work
         rdf:about="">
        <dc:format>image/svg+xml</dc:format>
        <dc:type
           rdf:resource="http://purl.org/dc/dcmitype/StillImage" />
        <dc:title></dc:title>
      </cc:Work>
    </rdf:RDF>
  </metadata>
  <g
     inkscape:label="Layer 1"
     inkscape:groupmode="layer"
     id="layer1"
     transform="translate(-155.35671,-335.18251)">
    <g
       id="g4152"
       transform="matrix(0.30311162,0,0,0.30311162,156.36686,327.27013)">
      <path
         style="fill:#ececec;fill-opacity:1"
         d="m 473.766,157.125 c -11.094,-11.641 -23.53,-21.938 -37.108,-30.656 l 17.969,-25.391 c 3.828,-5.422 11.328,-6.703 16.734,-2.859 l 19.577,13.844 c 5.406,3.828 6.688,11.313 2.859,16.734 z"
         id="path4194"
         inkscape:connector-curvature="0" />
      <path
         style="fill:#ffff66;fill-opacity:1"
         d="m 32,272 32,48 60.734,0 c -0.922,-7.891 -1.531,-15.875 -1.531,-24 0,-8.125 0.609,-16.109 1.531,-24 z"
         id="path4192"
         inkscape:connector-curvature="0" />
      <path
         style="fill:#7547c1;fill-opacity:1"
         d="m 131.188,240 c 4.844,-17.031 11.859,-33.094 20.688,-48 L 0,192 32,240 Z"
         id="path4190"
         inkscape:connector-curvature="0" />
      <path
         style="fill:#5ac759;fill-opacity:1"
         d="m 0,352 32,48 119.875,0 c -8.828,-14.906 -15.844,-30.969 -20.688,-48 z"
         id="path4188"
         inkscape:connector-curvature="0" />
      <path
         style="fill:#ececec;fill-opacity:1"
         d="m 301,80 3,0 0,15.969 c 7.891,-0.938 15.859,-1.563 24,-1.563 8.141,0 16.109,0.625 24,1.563 L 352,80 l 3,0 c 7.172,0 13,-5.813 13,-13 l 0,-22 c 0,-7.188 -5.828,-13 -13,-13 l -54,0 c -7.172,0 -13,5.813 -13,13 l 0,22 c 0,7.188 5.828,13 13,13 z"
         id="path4182"
         inkscape:connector-curvature="0" />
      <path
         id="path4154"
         style="fill:#ececec"
         d="m 435.813,291.891 -84.53,-17.733 C 345.438,267.938 337.203,264 328,264 c -17.672,0 -32,14.313 -32,32 0,17.687 14.328,32 32,32 9.203,0 17.438,-3.938 23.281,-10.156 l 84.531,-17.734 c 2.469,-0.516 4.155,-2.202 4.155,-4.108 0.002,-1.924 -1.686,-3.596 -4.154,-4.111 z M 465.594,296 c 0,-75.875 -61.719,-137.594 -137.594,-137.594 -75.875,0 -137.594,61.719 -137.594,137.594 0,75.875 61.719,137.594 137.594,137.594 75.875,0 137.594,-61.719 137.594,-137.594 z M 512,296 c 0,101.625 -82.391,184 -184,184 -101.625,0 -184,-82.375 -184,-184 0,-101.625 97.26157,-184 184,-184 86.73843,0 184,82.375 184,184 z"
         inkscape:connector-curvature="0" />
    </g>
    <text
       xml:space="preserve"
       style="font-style:normal;font-variant:normal;font-weight:bold;font-stretch:normal;font-size:114.587883px;line-height:76.99999213%;font-family:Magneto;-inkscape-font-specification:'Magneto Bold';text-align:start;letter-spacing:0px;word-spacing:0px;text-anchor:start;fill:#ececec;fill-opacity:1;stroke:none;stroke-width:1px;stroke-linecap:butt;stroke-linejoin:miter;stroke-opacity:1"
       x="319.06631"
       y="414.68988"
       id="text4164"
       sodipodi:linespacing="76.999992%"><tspan
         id="tspan4166"
         sodipodi:role="line"
         x="319.06631"
         y="414.68988"
         style="font-style:normal;font-variant:normal;font-weight:bold;font-stretch:condensed;font-size:49.29001999px;line-height:76.99999213%;font-family:Miso;-inkscape-font-specification:'Miso Bold Condensed';text-align:start;letter-spacing:-1.54277599px;text-anchor:start;fill:#ececec;fill-opacity:1">Race</tspan><tspan
         id="tspan4170"
         sodipodi:role="line"
         x="319.06631"
         y="452.64319"
         style="font-style:normal;font-variant:normal;font-weight:bold;font-stretch:condensed;font-size:49.29001999px;line-height:76.99999213%;font-family:Miso;-inkscape-font-specification:'Miso Bold Condensed';text-align:start;letter-spacing:-1.54277599px;text-anchor:start;fill:#ececec;fill-opacity:1">Timer</tspan></text>
  </g>
</svg>
