<?xml version="1.0" encoding="UTF-8" standalone="no"?>
<!-- Created with Inkscape (http://www.inkscape.org/) -->

<svg
   xmlns:dc="http://purl.org/dc/elements/1.1/"
   xmlns:cc="http://creativecommons.org/ns#"
   xmlns:rdf="http://www.w3.org/1999/02/22-rdf-syntax-ns#"
   xmlns:svg="http://www.w3.org/2000/svg"
   xmlns="http://www.w3.org/2000/svg"
   xmlns:sodipodi="http://sodipodi.sourceforge.net/DTD/sodipodi-0.dtd"
   xmlns:inkscape="http://www.inkscape.org/namespaces/inkscape"
   width="70.414703mm"
   height="39.424091mm"
   viewBox="0 0 249.50092 139.69166"
   id="svg5011"
   version="1.1"
   inkscape:version="0.91 r13725"
   sodipodi:docname="racetimerlogo.svg">
  <defs
     id="defs5013" />
  <sodipodi:namedview
     id="base"
     pagecolor="#ffffff"
     bordercolor="#666666"
     borderopacity="1.0"
     inkscape:pageopacity="0.0"
     inkscape:pageshadow="2"
     inkscape:zoom="2.8"
     inkscape:cx="110.37555"
     inkscape:cy="116.90304"
     inkscape:document-units="px"
     inkscape:current-layer="layer1"
     showgrid="false"
     fit-margin-top="0.5"
     fit-margin-left="0"
     fit-margin-right="0"
     fit-margin-bottom="-1.4"
     inkscape:window-width="1920"
     inkscape:window-height="1017"
     inkscape:window-x="-8"
     inkscape:window-y="-8"
     inkscape:window-maximized="1" />
  <metadata
     id="metadata5016">
    <rdf:RDF>
      <cc:Work
         rdf:about="">
        <dc:format>image/svg+xml</dc:format>
        <dc:type
           rdf:resource="http://purl.org/dc/dcmitype/StillImage" />
        <dc:title></dc:title>
      </cc:Work>
    </rdf:RDF>
  </metadata>
  <g
     inkscape:label="Layer 1"
     inkscape:groupmode="layer"
     id="layer1"
     transform="translate(-155.35671,-335.18251)">
    <g
       id="g4152"
       transform="matrix(0.30311162,0,0,0.30311162,156.36686,327.27013)">
      <path
         style="fill:#ececec;fill-opacity:1"
         d="m 473.766,157.125 c -11.094,-11.641 -23.53,-21.938 -37.108,-30.656 l 17.969,-25.391 c 3.828,-5.422 11.328,-6.703 16.734,-2.859 l 19.577,13.844 c 5.406,3.828 6.688,11.313 2.859,16.734 z"
         id="path4194"
         inkscape:connector-curvature="0" />
      <path
         style="fill:#ffff66;fill-opacity:1"
         d="m 32,272 32,48 60.734,0 c -0.922,-7.891 -1.531,-15.875 -1.531,-24 0,-8.125 0.609,-16.109 1.531,-24 z"
         id="path4192"
         inkscape:connector-curvature="0" />
      <path
         style="fill:#7547c1;fill-opacity:1"
         d="m 131.188,240 c 4.844,-17.031 11.859,-33.094 20.688,-48 L 0,192 32,240 Z"
         id="path4190"
         inkscape:connector-curvature="0" />
      <path
         style="fill:#5ac759;fill-opacity:1"
         d="m 0,352 32,48 119.875,0 c -8.828,-14.906 -15.844,-30.969 -20.688,-48 z"
         id="path4188"
         inkscape:connector-curvature="0" />
      <path
         style="fill:#ececec;fill-opacity:1"
         d="m 301,80 3,0 0,15.969 c 7.891,-0.938 15.859,-1.563 24,-1.563 8.141,0 16.109,0.625 24,1.563 L 352,80 l 3,0 c 7.172,0 13,-5.813 13,-13 l 0,-22 c 0,-7.188 -5.828,-13 -13,-13 l -54,0 c -7.172,0 -13,5.813 -13,13 l 0,22 c 0,7.188 5.828,13 13,13 z"
         id="path4182"
         inkscape:connector-curvature="0" />
      <path
         id="path4154"
         style="fill:#ececec"
         d="m 435.813,291.891 -84.53,-17.733 C 345.438,267.938 337.203,264 328,264 c -17.672,0 -32,14.313 -32,32 0,17.687 14.328,32 32,32 9.203,0 17.438,-3.938 23.281,-10.156 l 84.531,-17.734 c 2.469,-0.516 4.155,-2.202 4.155,-4.108 0.002,-1.924 -1.686,-3.596 -4.154,-4.111 z M 465.594,296 c 0,-75.875 -61.719,-137.594 -137.594,-137.594 -75.875,0 -137.594,61.719 -137.594,137.594 0,75.875 61.719,137.594 137.594,137.594 75.875,0 137.594,-61.719 137.594,-137.594 z M 512,296 c 0,101.625 -82.391,184 -184,184 -101.625,0 -184,-82.375 -184,-184 0,-101.625 97.26157,-184 184,-184 86.73843,0 184,82.375 184,184 z"
         inkscape:connector-curvature="0" />
    </g>
    <g
       style="font-style:normal;font-variant:normal;font-weight:bold;font-stretch:normal;font-size:114.587883px;line-height:76.99999213%;font-family:Magneto;-inkscape-font-specification:'Magneto Bold';text-align:start;letter-spacing:0px;word-spacing:0px;text-anchor:start;fill:#ececec;fill-opacity:1;stroke:none;stroke-width:1px;stroke-linecap:butt;stroke-linejoin:miter;stroke-opacity:1"
       id="text4164">
      <path
         d="m 338.19084,393.59375 0,-2.76024 c 0,-4.58397 -3.69675,-8.28072 -8.28072,-8.28072 l -5.9148,0 c -1.28154,0 -2.36592,1.08438 -2.36592,2.36592 l 0,28.39105 c 0,1.33083 1.08438,2.36592 2.36592,2.36592 1.33083,0 2.36592,-1.03509 2.36592,-2.36592 l 0,-11.43528 2.66166,0 4.58397,12.27321 c 0.4929,1.23225 1.82373,1.82373 3.05598,1.38012 1.23225,-0.44361 1.87302,-1.82373 1.38012,-3.05598 l -4.28823,-11.53387 c 2.66166,-1.38012 4.4361,-4.14036 4.4361,-7.34421 z m -11.8296,-6.30912 3.54888,0 c 1.9716,0 3.54888,1.57728 3.54888,3.54888 l 0,2.76024 c 0,1.9716 -1.57728,3.54888 -3.54888,3.54888 l -3.54888,0 0,-9.858 z"
         style="font-style:normal;font-variant:normal;font-weight:bold;font-stretch:condensed;font-size:49.29001999px;line-height:76.99999213%;font-family:Miso;-inkscape-font-specification:'Miso Bold Condensed';text-align:start;letter-spacing:-1.54277599px;text-anchor:start;fill:#ececec;fill-opacity:1"
         id="path4152" />
      <path
         d="m 345.91536,401.03654 c -3.9432,0 -7.14705,3.20386 -7.14705,7.14706 0,3.9432 3.20385,7.14705 7.14705,7.14705 l 4.929,0 c 1.23225,0 2.21805,-0.9858 2.21805,-2.21805 l 0,-14.68843 c 0,-2.85882 -1.72515,-5.4219 -4.38681,-6.50628 -2.61237,-1.08438 -5.61906,-0.4929 -7.63995,1.52799 -0.88722,0.88722 -0.88722,2.26734 0,3.15456 0.83793,0.83793 2.26734,0.83793 3.10527,0 0.73935,-0.78864 1.87302,-0.9858 2.85882,-0.59148 0.9858,0.39432 1.62657,1.38012 1.62657,2.41521 l 0,2.61237 -2.71095,0 z m 0,4.43611 2.71095,0 0,5.4219 -2.71095,0 c -1.52799,0 -2.71095,-1.23225 -2.71095,-2.71095 0,-1.4787 1.18296,-2.71095 2.71095,-2.71095 z"
         style="font-style:normal;font-variant:normal;font-weight:bold;font-stretch:condensed;font-size:49.29001999px;line-height:76.99999213%;font-family:Miso;-inkscape-font-specification:'Miso Bold Condensed';text-align:start;letter-spacing:-1.54277599px;text-anchor:start;fill:#ececec;fill-opacity:1"
         id="path4155" />
      <path
         d="m 360.32099,414.98562 c 2.71095,1.13367 5.76693,0.4929 7.78782,-1.52799 0.88722,-0.88722 0.88722,-2.26734 0,-3.15456 -0.83793,-0.88722 -2.26734,-0.88722 -3.10527,0 -0.78864,0.78864 -1.9716,0.9858 -2.9574,0.59148 -1.03509,-0.44361 -1.67586,-1.42941 -1.67586,-2.51379 l 0,-9.85801 c 0,-1.08438 0.64077,-2.07018 1.67586,-2.51379 0.9858,-0.39432 2.16876,-0.19716 2.9574,0.59148 0.83793,0.88722 2.26734,0.88722 3.10527,0 0.88722,-0.83793 0.88722,-2.26734 0,-3.10527 -2.02089,-2.07018 -5.07687,-2.66166 -7.78782,-1.57728 -2.66166,1.13367 -4.38681,3.69675 -4.38681,6.60486 l 0,9.85801 c 0,2.90811 1.72515,5.47119 4.38681,6.60486 z"
         style="font-style:normal;font-variant:normal;font-weight:bold;font-stretch:condensed;font-size:49.29001999px;line-height:76.99999213%;font-family:Miso;-inkscape-font-specification:'Miso Bold Condensed';text-align:start;letter-spacing:-1.54277599px;text-anchor:start;fill:#ececec;fill-opacity:1"
         id="path4157" />
      <path
         d="m 375.00079,414.98562 c 2.66166,1.13367 5.71764,0.4929 7.78782,-1.52799 0.83793,-0.88722 0.83793,-2.26734 0,-3.15456 -0.88722,-0.88722 -2.31663,-0.88722 -3.15456,0 -0.78864,0.78864 -1.92231,0.9858 -2.9574,0.59148 -1.03509,-0.44361 -1.67586,-1.42941 -1.67586,-2.51379 l 0,-2.71095 7.63995,0 c 1.23225,0 2.21805,-0.9858 2.21805,-2.21805 l 0,-4.92901 c 0,-3.9432 -3.20385,-7.14705 -7.14705,-7.14705 -3.9432,0 -7.14705,3.20385 -7.14705,7.14705 l 0,9.85801 c 0,2.90811 1.72515,5.47119 4.4361,6.60486 z m 2.71095,-19.17382 c 1.4787,0 2.71095,1.23225 2.71095,2.71095 0,0 0,1.38012 0,2.71095 -1.52799,0 -3.74604,0 -5.4219,0 l 0,-2.71095 c 0,-1.4787 1.23225,-2.71095 2.71095,-2.71095 z"
         style="font-style:normal;font-variant:normal;font-weight:bold;font-stretch:condensed;font-size:49.29001999px;line-height:76.99999213%;font-family:Miso;-inkscape-font-specification:'Miso Bold Condensed';text-align:start;letter-spacing:-1.54277599px;text-anchor:start;fill:#ececec;fill-opacity:1"
         id="path4159" />
      <path
         d="m 322.02372,420.5061 c -1.28154,0 -2.36593,1.08438 -2.36593,2.36592 0,1.33083 1.08439,2.36592 2.36593,2.36592 l 4.04178,0 0,26.02513 c 0,1.33083 1.08438,2.36592 2.36592,2.36592 1.33083,0 2.36592,-1.03509 2.36592,-2.36592 l 0,-26.02513 4.04178,0 c 1.33083,0 2.36592,-1.03509 2.36592,-2.36592 0,-1.28154 -1.03509,-2.36592 -2.36592,-2.36592 l -12.8154,0 z"
         style="font-style:normal;font-variant:normal;font-weight:bold;font-stretch:condensed;font-size:49.29001999px;line-height:76.99999213%;font-family:Miso;-inkscape-font-specification:'Miso Bold Condensed';text-align:start;letter-spacing:-1.54277599px;text-anchor:start;fill:#ececec;fill-opacity:1"
         id="path4161" />
      <path
         d="m 340.26241,426.86451 c 1.52799,0 2.71095,-1.23225 2.71095,-2.71095 0,-1.4787 -1.18296,-2.71095 -2.71095,-2.71095 -1.4787,0 -2.71095,1.23225 -2.71095,2.71095 0,1.4787 1.23225,2.71095 2.71095,2.71095 z m 2.21805,24.39856 0,-19.71601 c 0,-1.23225 -0.9858,-2.21805 -2.21805,-2.21805 -1.23225,0 -2.21805,0.9858 -2.21805,2.21805 l 0,19.71601 c 0,1.23225 0.9858,2.21805 2.21805,2.21805 1.23225,0 2.21805,-0.9858 2.21805,-2.21805 z"
         style="font-style:normal;font-variant:normal;font-weight:bold;font-stretch:condensed;font-size:49.29001999px;line-height:76.99999213%;font-family:Miso;-inkscape-font-specification:'Miso Bold Condensed';text-align:start;letter-spacing:-1.54277599px;text-anchor:start;fill:#ececec;fill-opacity:1"
         id="path4163" />
      <path
         d="m 356.17908,433.96227 0,17.3008 c 0,1.23225 0.9858,2.21805 2.21805,2.21805 1.18296,0 2.21806,-0.9858 2.21806,-2.21805 l 0,-17.3008 2.71095,0 c 1.4787,0 2.71095,1.23225 2.71095,2.71096 l 0,14.58984 c 0,1.23225 0.9858,2.21805 2.21805,2.21805 1.18296,0 2.21805,-0.9858 2.21805,-2.21805 l 0,-14.58984 c 0,-3.94321 -3.25314,-7.14706 -7.14705,-7.14706 l -14.78701,0 c -1.23225,0 -2.21805,0.9858 -2.21805,2.21805 l 0,19.51885 c 0,1.23225 0.9858,2.21805 2.21805,2.21805 1.18296,0 2.21805,-0.9858 2.21805,-2.21805 l 0,-17.3008 5.4219,0 z"
         style="font-style:normal;font-variant:normal;font-weight:bold;font-stretch:condensed;font-size:49.29001999px;line-height:76.99999213%;font-family:Miso;-inkscape-font-specification:'Miso Bold Condensed';text-align:start;letter-spacing:-1.54277599px;text-anchor:start;fill:#ececec;fill-opacity:1"
         id="path4165" />
      <path
         d="m 377.79261,452.93893 c 2.66166,1.13367 5.71764,0.4929 7.78782,-1.52799 0.83793,-0.88722 0.83793,-2.26734 0,-3.15456 -0.88722,-0.88722 -2.31663,-0.88722 -3.15456,0 -0.78864,0.78864 -1.92231,0.9858 -2.9574,0.59148 -1.03509,-0.44361 -1.67586,-1.42941 -1.67586,-2.51379 l 0,-2.71095 7.63995,0 c 1.23225,0 2.21805,-0.9858 2.21805,-2.21805 l 0,-4.929 c 0,-3.94321 -3.20385,-7.14706 -7.14705,-7.14706 -3.9432,0 -7.14706,3.20385 -7.14706,7.14706 l 0,9.858 c 0,2.90811 1.72516,5.47119 4.43611,6.60486 z m 2.71095,-19.17382 c 1.4787,0 2.71095,1.23225 2.71095,2.71096 0,0 0,1.38012 0,2.71095 -1.52799,0 -3.74604,0 -5.4219,0 l 0,-2.71095 c 0,-1.47871 1.23225,-2.71096 2.71095,-2.71096 z"
         style="font-style:normal;font-variant:normal;font-weight:bold;font-stretch:condensed;font-size:49.29001999px;line-height:76.99999213%;font-family:Miso;-inkscape-font-specification:'Miso Bold Condensed';text-align:start;letter-spacing:-1.54277599px;text-anchor:start;fill:#ececec;fill-opacity:1"
         id="path4167" />
      <path
         d="m 392.72194,453.48112 c 1.23225,0 2.21805,-0.9858 2.21805,-2.21805 l 0,-17.3008 2.71095,0 c 0.4929,0 0.93651,0.14787 1.33083,0.34503 1.08438,0.64077 2.41521,0.24645 3.05598,-0.78864 0.59148,-1.08438 0.24645,-2.41521 -0.83793,-3.05598 -1.08438,-0.59148 -2.31663,-0.93651 -3.54888,-0.93651 l -4.929,0 c -1.23225,0 -2.21805,0.9858 -2.21805,2.21805 l 0,19.51885 c 0,1.23225 0.9858,2.21805 2.21805,2.21805 z"
         style="font-style:normal;font-variant:normal;font-weight:bold;font-stretch:condensed;font-size:49.29001999px;line-height:76.99999213%;font-family:Miso;-inkscape-font-specification:'Miso Bold Condensed';text-align:start;letter-spacing:-1.54277599px;text-anchor:start;fill:#ececec;fill-opacity:1"
         id="path4169" />
    </g>
  </g>
</svg>
